<svg xmlns:xlink="http://www.w3.org/1999/xlink" width="30.405ex" height="10.343ex" style="font-size: 15px; vertical-align: -2.505ex;" viewBox="0 -3374.7 13091.1 4453.1" role="img" focusable="false" xmlns="http://www.w3.org/2000/svg">
<defs>
<path stroke-width="1" id="E1-MJMAIN-3A9" d="M55 454Q55 503 75 546T127 617T197 665T272 695T337 704H352Q396 704 404 703Q527 687 596 615T666 454Q666 392 635 330T559 200T499 83V80H543Q589 81 600 83T617 93Q622 102 629 135T636 172L637 177H677V175L660 89Q645 3 644 2V0H552H488Q461 0 456 3T451 20Q451 89 499 235T548 455Q548 512 530 555T483 622T424 656T361 668Q332 668 303 658T243 626T193 560T174 456Q174 380 222 233T270 20Q270 7 263 0H77V2Q76 3 61 89L44 175V177H84L85 172Q85 171 88 155T96 119T104 93Q109 86 120 84T178 80H222V83Q206 132 162 199T87 329T55 454Z"></path>
<path stroke-width="1" id="E1-MJMAIN-3D" d="M56 347Q56 360 70 367H707Q722 359 722 347Q722 336 708 328L390 327H72Q56 332 56 347ZM56 153Q56 168 72 173H708Q722 163 722 153Q722 140 707 133H70Q56 140 56 153Z"></path>
<path stroke-width="1" id="E1-MJMATHI-57" d="M436 683Q450 683 486 682T553 680Q604 680 638 681T677 682Q695 682 695 674Q695 670 692 659Q687 641 683 639T661 637Q636 636 621 632T600 624T597 615Q597 603 613 377T629 138L631 141Q633 144 637 151T649 170T666 200T690 241T720 295T759 362Q863 546 877 572T892 604Q892 619 873 628T831 637Q817 637 817 647Q817 650 819 660Q823 676 825 679T839 682Q842 682 856 682T895 682T949 681Q1015 681 1034 683Q1048 683 1048 672Q1048 666 1045 655T1038 640T1028 637Q1006 637 988 631T958 617T939 600T927 584L923 578L754 282Q586 -14 585 -15Q579 -22 561 -22Q546 -22 542 -17Q539 -14 523 229T506 480L494 462Q472 425 366 239Q222 -13 220 -15T215 -19Q210 -22 197 -22Q178 -22 176 -15Q176 -12 154 304T131 622Q129 631 121 633T82 637H58Q51 644 51 648Q52 671 64 683H76Q118 680 176 680Q301 680 313 683H323Q329 677 329 674T327 656Q322 641 318 637H297Q236 634 232 620Q262 160 266 136L501 550L499 587Q496 629 489 632Q483 636 447 637Q428 637 422 639T416 648Q416 650 418 660Q419 664 420 669T421 676T424 680T428 682T436 683Z"></path>
<path stroke-width="1" id="E1-MJMAIN-28" d="M94 250Q94 319 104 381T127 488T164 576T202 643T244 695T277 729T302 750H315H319Q333 750 333 741Q333 738 316 720T275 667T226 581T184 443T167 250T184 58T225 -81T274 -167T316 -220T333 -241Q333 -250 318 -250H315H302L274 -226Q180 -141 137 -14T94 250Z"></path>
<path stroke-width="1" id="E1-MJMAIN-31" d="M213 578L200 573Q186 568 160 563T102 556H83V602H102Q149 604 189 617T245 641T273 663Q275 666 285 666Q294 666 302 660V361L303 61Q310 54 315 52T339 48T401 46H427V0H416Q395 3 257 3Q121 3 100 0H88V46H114Q136 46 152 46T177 47T193 50T201 52T207 57T213 61V578Z"></path>
<path stroke-width="1" id="E1-MJMAIN-29" d="M60 749L64 750Q69 750 74 750H86L114 726Q208 641 251 514T294 250Q294 182 284 119T261 12T224 -76T186 -143T145 -194T113 -227T90 -246Q87 -249 86 -250H74Q66 -250 63 -250T58 -247T55 -238Q56 -237 66 -225Q221 -64 221 250T66 725Q56 737 55 738Q55 746 60 749Z"></path>
<path stroke-width="1" id="E1-MJMATHI-65" d="M39 168Q39 225 58 272T107 350T174 402T244 433T307 442H310Q355 442 388 420T421 355Q421 265 310 237Q261 224 176 223Q139 223 138 221Q138 219 132 186T125 128Q125 81 146 54T209 26T302 45T394 111Q403 121 406 121Q410 121 419 112T429 98T420 82T390 55T344 24T281 -1T205 -11Q126 -11 83 42T39 168ZM373 353Q367 405 305 405Q272 405 244 391T199 357T170 316T154 280T149 261Q149 260 169 260Q282 260 327 284T373 353Z"></path>
<path stroke-width="1" id="E1-MJSZ3-28" d="M701 -940Q701 -943 695 -949H664Q662 -947 636 -922T591 -879T537 -818T475 -737T412 -636T350 -511T295 -362T250 -186T221 17T209 251Q209 962 573 1361Q596 1386 616 1405T649 1437T664 1450H695Q701 1444 701 1441Q701 1436 681 1415T629 1356T557 1261T476 1118T400 927T340 675T308 359Q306 321 306 250Q306 -139 400 -430T690 -924Q701 -936 701 -940Z"></path>
<path stroke-width="1" id="E1-MJSZ3-29" d="M34 1438Q34 1446 37 1448T50 1450H56H71Q73 1448 99 1423T144 1380T198 1319T260 1238T323 1137T385 1013T440 864T485 688T514 485T526 251Q526 134 519 53Q472 -519 162 -860Q139 -885 119 -904T86 -936T71 -949H56Q43 -949 39 -947T34 -937Q88 -883 140 -813Q428 -430 428 251Q428 453 402 628T338 922T245 1146T145 1309T46 1425Q44 1427 42 1429T39 1433T36 1436L34 1438Z"></path>
<path stroke-width="1" id="E1-MJSZ2-28" d="M180 96T180 250T205 541T266 770T353 944T444 1069T527 1150H555Q561 1144 561 1141Q561 1137 545 1120T504 1072T447 995T386 878T330 721T288 513T272 251Q272 133 280 56Q293 -87 326 -209T399 -405T475 -531T536 -609T561 -640Q561 -643 555 -649H527Q483 -612 443 -568T353 -443T266 -270T205 -41Z"></path>
<path stroke-width="1" id="E1-MJSZ2-29" d="M35 1138Q35 1150 51 1150H56H69Q113 1113 153 1069T243 944T330 771T391 541T416 250T391 -40T330 -270T243 -443T152 -568T69 -649H56Q43 -649 39 -647T35 -637Q65 -607 110 -548Q283 -316 316 56Q324 133 324 251Q324 368 316 445Q278 877 48 1123Q36 1137 35 1138Z"></path>
<path stroke-width="1" id="E1-MJMAIN-2E" d="M78 60Q78 84 95 102T138 120Q162 120 180 104T199 61Q199 36 182 18T139 0T96 17T78 60Z"></path>
</defs>
<g stroke="currentColor" fill="currentColor" stroke-width="0" transform="matrix(1 0 0 -1 0 0)">
 <use xlink:href="#E1-MJMAIN-3A9" x="0" y="0"></use>
 <use xlink:href="#E1-MJMAIN-3D" x="1000" y="0"></use>
 <use xlink:href="#E1-MJMATHI-57" x="2056" y="0"></use>
 <use xlink:href="#E1-MJMAIN-28" x="3105" y="0"></use>
 <use xlink:href="#E1-MJMAIN-31" x="3494" y="0"></use>
 <use xlink:href="#E1-MJMAIN-29" x="3995" y="0"></use>
 <use xlink:href="#E1-MJMAIN-3D" x="4662" y="0"></use>
<g transform="translate(5718,0)">
 <use xlink:href="#E1-MJSZ3-28"></use>
<g transform="translate(736,0)">
<g transform="translate(120,0)">
<rect stroke="none" width="620" height="60" x="0" y="220"></rect>
 <use xlink:href="#E1-MJMAIN-31" x="60" y="676"></use>
 <use xlink:href="#E1-MJMATHI-65" x="77" y="-686"></use>
</g>
</g>
 <use xlink:href="#E1-MJSZ3-29" x="1597" y="-1"></use>
<g transform="translate(2333,1177)">
 <use transform="scale(0.707)" xlink:href="#E1-MJSZ2-28"></use>
<g transform="translate(422,0)">
<g transform="translate(120,0)">
<rect stroke="none" width="407" height="60" x="0" y="146"></rect>
 <use transform="scale(0.574)" xlink:href="#E1-MJMAIN-31" x="104" y="647"></use>
 <use transform="scale(0.574)" xlink:href="#E1-MJMATHI-65" x="121" y="-475"></use>
</g>
</g>
 <use transform="scale(0.707)" xlink:href="#E1-MJSZ2-29" x="1512" y="-1"></use>
<g transform="translate(1492,591)">
 <use transform="scale(0.574)" xlink:href="#E1-MJSZ2-28"></use>
<g transform="translate(343,0)">
<g transform="translate(120,0)">
<rect stroke="none" width="407" height="60" x="0" y="113"></rect>
 <use transform="scale(0.574)" xlink:href="#E1-MJMAIN-31" x="104" y="589"></use>
 <use transform="scale(0.574)" xlink:href="#E1-MJMATHI-65" x="121" y="-533"></use>
</g>
</g>
 <use transform="scale(0.574)" xlink:href="#E1-MJSZ2-29" x="1725" y="-1"></use>
<g transform="translate(1333,499)">
 <use transform="scale(0.574)" xlink:href="#E1-MJSZ2-28"></use>
<g transform="translate(343,0)">
<g transform="translate(120,0)">
<rect stroke="none" width="407" height="60" x="0" y="113"></rect>
 <use transform="scale(0.574)" xlink:href="#E1-MJMAIN-31" x="104" y="589"></use>
 <use transform="scale(0.574)" xlink:href="#E1-MJMATHI-65" x="121" y="-533"></use>
</g>
</g>
 <use transform="scale(0.574)" xlink:href="#E1-MJSZ2-29" x="1725" y="-1"></use>
<g transform="translate(1333,499)">
 <use transform="scale(0.574)" xlink:href="#E1-MJMAIN-2E" x="0" y="0"></use>
<g transform="translate(159,208)">
 <use transform="scale(0.574)" xlink:href="#E1-MJMAIN-2E" x="0" y="0"></use>
 <use transform="scale(0.574)" xlink:href="#E1-MJMAIN-2E" x="278" y="362"></use>
</g>
</g>
</g>
</g>
</g>
</g>
</g>
</svg>